<svg width="24" height="24" viewBox="0 0 24 24" fill="none" xmlns="http://www.w3.org/2000/svg">
<path fill-rule="evenodd" clip-rule="evenodd" d="M21 15C21.4142 15 21.75 15.3358 21.75 15.75V18.375C21.75 19.2701 21.3944 20.1286 20.7615 20.7615C20.1286 21.3944 19.2701 21.75 18.375 21.75H15.75C15.3358 21.75 15 21.4142 15 21C15 20.5858 15.3358 20.25 15.75 20.25H18.375C18.8723 20.25 19.3492 20.0525 19.7008 19.7008C20.0525 19.3492 20.25 18.8723 20.25 18.375V15.75C20.25 15.3358 20.5858 15 21 15Z" fill="#5A5A5A"/>
<path fill-rule="evenodd" clip-rule="evenodd" d="M15 3C15 2.58579 15.3358 2.25 15.75 2.25H18.375C19.2701 2.25 20.1286 2.60558 20.7615 3.23851C21.3944 3.87145 21.75 4.72989 21.75 5.625V8.25C21.75 8.66421 21.4142 9 21 9C20.5858 9 20.25 8.66421 20.25 8.25V5.625C20.25 5.12772 20.0525 4.65081 19.7008 4.29918C19.3492 3.94754 18.8723 3.75 18.375 3.75H15.75C15.3358 3.75 15 3.41421 15 3Z" fill="#5A5A5A"/>
<path fill-rule="evenodd" clip-rule="evenodd" d="M3 15C3.41421 15 3.75 15.3358 3.75 15.75V18.375C3.75 18.8723 3.94754 19.3492 4.29918 19.7008C4.65081 20.0525 5.12772 20.25 5.625 20.25H8.25C8.66421 20.25 9 20.5858 9 21C9 21.4142 8.66421 21.75 8.25 21.75H5.625C4.72989 21.75 3.87145 21.3944 3.23851 20.7615C2.60558 20.1286 2.25 19.2701 2.25 18.375V15.75C2.25 15.3358 2.58579 15 3 15Z" fill="#5A5A5A"/>
<path fill-rule="evenodd" clip-rule="evenodd" d="M5.625 3.75C5.12772 3.75 4.65081 3.94754 4.29918 4.29918C3.94754 4.65081 3.75 5.12772 3.75 5.625V8.25C3.75 8.66421 3.41421 9 3 9C2.58579 9 2.25 8.66421 2.25 8.25V5.625C2.25 4.72989 2.60558 3.87145 3.23851 3.23851C3.87145 2.60558 4.72989 2.25 5.625 2.25H8.25C8.66421 2.25 9 2.58579 9 3C9 3.41421 8.66421 3.75 8.25 3.75H5.625Z" fill="#5A5A5A"/>
</svg>
