<svg width="24" height="24" viewBox="0 0 24 24" fill="none" xmlns="http://www.w3.org/2000/svg">
<path fill-rule="evenodd" clip-rule="evenodd" d="M3.00011 2.68933L20.5608 20.25L19.5001 21.3106L1.93945 3.74999L3.00011 2.68933Z" fill="white"/>
<path d="M16.5 12C16.5 10.8488 16.2276 9.75563 15.6679 8.65922L15.3281 7.99078L13.9912 8.67188L14.332 9.33985C14.7815 10.2216 15 11.0916 15 12C14.9997 12.1838 14.9898 12.3675 14.9704 12.5503L16.2511 13.8309C16.4149 13.2344 16.4986 12.6187 16.5 12Z" fill="white"/>
<path d="M19.5 12C19.5 9.60046 18.8869 8.06765 17.8978 6.37218L17.52 5.72437L16.2244 6.47999L16.6022 7.1278C17.4876 8.64562 18 9.92952 18 12C18 13.2155 17.8176 14.1661 17.4844 15.0623L18.6328 16.2112C19.1808 14.985 19.5 13.7072 19.5 12Z" fill="white"/>
<path d="M22.5 12C22.5 8.51905 21.5536 6.32296 20.1324 4.09639L19.7288 3.46405L18.4631 4.27124L18.8667 4.90358C20.1478 6.90843 21 8.8828 21 12C21 14.2856 20.5594 15.9375 19.8366 17.4164L20.9475 18.5273C22.0388 16.4714 22.5 14.4844 22.5 12Z" fill="white"/>
<path d="M12 3.375L8.55005 6.13031L12 9.57984V3.375Z" fill="white"/>
<path d="M1.5 8.2547V15.7453H5.88984L12 20.625V15.9202L4.33453 8.2547H1.5Z" fill="white"/>
</svg>
