<svg width="24" height="24" viewBox="0 0 24 24" fill="none" xmlns="http://www.w3.org/2000/svg">
<path fill-rule="evenodd" clip-rule="evenodd" d="M15.3268 7.99097L15.668 8.6589C16.1822 9.66587 16.5 10.7636 16.5 12C16.5 13.2241 16.1686 14.345 15.6702 15.3368L15.3334 16.0069L13.9931 15.3334L14.3299 14.6632C14.7445 13.8382 15 12.9472 15 12C15 11.0352 14.7553 10.1698 14.3321 9.34116L13.991 8.67322L15.3268 7.99097Z" fill="#3DB3A2"/>
<path fill-rule="evenodd" clip-rule="evenodd" d="M17.5195 5.72418L17.8977 6.37189C18.8817 8.05755 19.4999 9.58454 19.4999 12C19.4999 14.4191 18.8549 15.9614 17.9003 17.6235L17.5268 18.2739L16.2261 17.5269L16.5996 16.8765C17.4713 15.3586 17.9999 14.0753 17.9999 12C17.9999 9.9211 17.4932 8.65434 16.6022 7.12812L16.2241 6.48041L17.5195 5.72418Z" fill="#3DB3A2"/>
<path fill-rule="evenodd" clip-rule="evenodd" d="M19.7287 3.46429L20.1323 4.09649C21.5989 6.39415 22.5001 8.61482 22.5001 12C22.5001 15.3817 21.6011 17.6515 20.1283 19.9097L19.7186 20.5379L18.4622 19.7185L18.8719 19.0903C20.2116 17.0361 21.0001 15.0467 21.0001 12C21.0001 8.95677 20.2138 7.01212 18.8679 4.90354L18.4643 4.27135L19.7287 3.46429Z" fill="#3DB3A2"/>
<path d="M5.88984 8.25469H1.5V15.7453H5.88984L12 20.625V3.375L5.88984 8.25469Z" fill="#3DB3A2"/>
</svg>
